# xmcd CD database file
#
# Track frame offsets:
#	150
#	33462
#	69121
#	110083
#	132279
#	192906
#	216280
#	238889
#	265572
#	292033
#
# Disc length: 4100 seconds
#
# Revision: 2
# Processed by: cddbd v1.5.1PL2 Copyright (c) Steve Scherf et al.
# Submitted via: CDex 1.51
#
DISCID=9810020a
DTITLE=Miles Davis - Best of Miles Davis
DYEAR=1900
DGENRE=Jazz
TTITLE0=A Night In Tunisia
TTITLE1=I'll Remember April
TTITLE2=Surrey with the Fringe on Top
TTITLE3=Doxy
TTITLE4=Walkin
TTITLE5=I Could Write a Book
TTITLE6=Airegin
TTITLE7=Oleo
TTITLE8=The Theme
TTITLE9=When Lights are Low
EXTD=
EXTT0=
EXTT1=
EXTT2=
EXTT3=
EXTT4=
EXTT5=
EXTT6=
EXTT7=
EXTT8=
EXTT9=
PLAYORDER=
